<svg id="Arrow_Carousel" data-name="Arrow Carousel" xmlns="http://www.w3.org/2000/svg" width="48" height="48" viewBox="0 0 48 48">
  <g id="Combined_Shape" data-name="Combined Shape" fill="none" stroke-miterlimit="10">
    <path d="M24,0A24,24,0,1,1,0,24,24,24,0,0,1,24,0Z" stroke="none"/>
    <path d="M 24 2 C 21.02913284301758 2 18.1481990814209 2.581401824951172 15.43722152709961 3.728042602539062 C 12.81771087646484 4.836009979248047 10.4647331237793 6.422565460205078 8.443656921386719 8.443656921386719 C 6.422565460205078 10.4647331237793 4.836009979248047 12.81771087646484 3.728042602539062 15.43722152709961 C 2.581401824951172 18.1481990814209 2 21.02913284301758 2 24 C 2 26.97086715698242 2.581401824951172 29.8518009185791 3.728042602539062 32.56277847290039 C 4.836009979248047 35.18228912353516 6.422565460205078 37.5352668762207 8.443656921386719 39.55634307861328 C 10.4647331237793 41.57743453979492 12.81771087646484 43.16399002075195 15.43722152709961 44.27195739746094 C 18.1481990814209 45.41860198974609 21.02913284301758 46 24 46 C 26.97086715698242 46 29.8518009185791 45.41860198974609 32.56277847290039 44.27195739746094 C 35.18228912353516 43.16399002075195 37.5352668762207 41.57743453979492 39.55634307861328 39.55634307861328 C 41.57743453979492 37.5352668762207 43.16399002075195 35.18228912353516 44.27195739746094 32.56277847290039 C 45.41860198974609 29.8518009185791 46 26.97086715698242 46 24 C 46 21.02913284301758 45.41860198974609 18.1481990814209 44.27195739746094 15.43722152709961 C 43.16399002075195 12.81771087646484 41.57743453979492 10.4647331237793 39.55634307861328 8.443656921386719 C 37.5352668762207 6.422565460205078 35.18228912353516 4.836009979248047 32.56277847290039 3.728042602539062 C 29.8518009185791 2.581401824951172 26.97086715698242 2 24 2 M 24 0 C 37.25483322143555 0 48 10.74516677856445 48 24 C 48 37.25483322143555 37.25483322143555 48 24 48 C 10.74516677856445 48 0 37.25483322143555 0 24 C 0 10.74516677856445 10.74516677856445 0 24 0 Z" stroke="none" fill="#018650"/>
  </g>
  <path id="Fill_5" data-name="Fill 5" d="M11.066,0H3.89L0,3.889H11.111V15L15,11.111V3.934A3.938,3.938,0,0,0,11.066,0Z" transform="translate(20.525 13.409) rotate(45)" fill="#018650"/>
</svg>
