<svg xmlns="http://www.w3.org/2000/svg" width="131" height="50" viewBox="0 0 131 50">
  <g id="Share_button" data-name="Share button" transform="translate(-166 -9123)">
    <rect id="background" width="129" height="48" rx="24" transform="translate(167 9124)" fill="#fff" stroke="#018650" stroke-width="2"/>
    <text id="Share" transform="translate(194.778 9136)" fill="#018650" font-size="16" font-family="NotoSans-SemiCondensedBold, Noto Sans" font-weight="700"><tspan x="0" y="17">Share</tspan></text>
    <path id="_Color" data-name=" ↳Color" d="M15,14.137a2.906,2.906,0,0,0-1.96.773L5.91,10.743a3.3,3.3,0,0,0,.09-.7,3.3,3.3,0,0,0-.09-.7l7.05-4.127A2.99,2.99,0,0,0,18,3.012a3,3,0,1,0-6,0,3.3,3.3,0,0,0,.09.7L5.04,7.841a3.012,3.012,0,1,0,0,4.4l7.12,4.177a2.843,2.843,0,0,0-.08.653A2.92,2.92,0,1,0,15,14.137Z" transform="translate(254 9138)" fill="#018650"/>
  </g>
</svg>
