<svg id="Dark_Applied_Therapeutics_Logo" data-name="Dark Applied Therapeutics Logo" xmlns="http://www.w3.org/2000/svg" xmlns:xlink="http://www.w3.org/1999/xlink" width="158.87" height="30" viewBox="0 0 158.87 30">
  <defs>
    <clipPath id="clip-path">
      <path id="Clip_16" data-name="Clip 16" d="M0,0H9.455V12.6H0Z" transform="translate(0.415 0.109)" fill="none"/>
    </clipPath>
    <clipPath id="clip-path-2">
      <path id="Clip_29" data-name="Clip 29" d="M0,0H12.089V12.357H0Z" transform="translate(0.175 0.324)" fill="none"/>
    </clipPath>
  </defs>
  <path id="Fill_1" data-name="Fill 1" d="M11.621,13h-.728a.439.439,0,0,1-.4-.286L9.3,10.071H2.671L1.516,12.638A.552.552,0,0,1,1.009,13H.415a.389.389,0,0,1-.365-.182.457.457,0,0,1,.013-.441C2.816,6.338,4.693,2.264,5.641.266A.42.42,0,0,1,5.992,0a.389.389,0,0,1,.359.282c2.442,5.211,4.323,9.294,5.591,12.136a.432.432,0,0,1,.011.412A.36.36,0,0,1,11.621,13ZM5.988,2.663h0l-.024.053c-.035.077-.077.167-.123.273C5.222,4.381,4.36,6.295,3.277,8.678H8.695L6.147,3.007c-.064-.14-.116-.252-.159-.344Z" transform="translate(78 16)" fill="#fff"/>
  <path id="Fill_3" data-name="Fill 3" d="M1.1,12H.369A.362.362,0,0,1,0,11.6V.4A.362.362,0,0,1,.369,0h4.5A4.343,4.343,0,0,1,7.78,1.027,3.447,3.447,0,0,1,9,3.775,3.414,3.414,0,0,1,7.76,6.542,4.943,4.943,0,0,1,4.526,7.55H1.465V11.6A.362.362,0,0,1,1.1,12ZM1.465,1.317V6.233h3.38a2.788,2.788,0,0,0,1.877-.625,2.248,2.248,0,0,0,.812-1.833,2.191,2.191,0,0,0-.787-1.782,2.886,2.886,0,0,0-1.937-.676Z" transform="translate(91 17)" fill="#fff"/>
  <path id="Fill_5" data-name="Fill 5" d="M8.532,10.682H1.567V6.549H8.4c.14,0,.376-.066.376-.509V5.708c0-.442-.287-.477-.376-.477H1.567V1.317H8.476A.426.426,0,0,0,8.908.842V.427A.408.408,0,0,0,8.476,0H.358A.362.362,0,0,0,0,.413V11.519A.424.424,0,0,0,.431,12h8.1A.427.427,0,0,0,9,11.557v-.416a.447.447,0,0,0-.108-.364.517.517,0,0,0-.361-.095" transform="translate(101 17)" fill="#fff"/>
  <path id="Fill_7" data-name="Fill 7" d="M9.616,0H8.8a.338.338,0,0,0-.329.383V7.8c0,2.564-1.137,3.809-3.475,3.809S1.524,10.361,1.524,7.8V.4A.375.375,0,0,0,1.141,0H.383A.367.367,0,0,0,0,.383v7.4A5.281,5.281,0,0,0,1.344,11.62,4.891,4.891,0,0,0,5,13a4.893,4.893,0,0,0,3.656-1.38A5.259,5.259,0,0,0,10,7.8V.383A.367.367,0,0,0,9.616,0" transform="translate(111 16)" fill="#fff"/>
  <path id="Fill_9" data-name="Fill 9" d="M9.595,0H.405A.386.386,0,0,0,0,.409V.957a.357.357,0,0,0,.387.36H4.222V11.57a.413.413,0,0,0,.442.43h.71a.371.371,0,0,0,.387-.4V1.317H9.577A.372.372,0,0,0,10,.957V.409A.385.385,0,0,0,9.595,0" transform="translate(122 17)" fill="#fff"/>
  <path id="Fill_11" data-name="Fill 11" d="M.737,0H.3C.118,0,0,.175,0,.446V11.6c0,.237.116.4.288.4H.713C.885,12,1,11.841,1,11.6V.446C1,.118.859,0,.737,0" transform="translate(133 17)" fill="#fff"/>
  <path id="Fill_13" data-name="Fill 13" d="M11.811,9.023l-.458-.266a.413.413,0,0,0-.206-.057.5.5,0,0,0-.427.292,4.71,4.71,0,0,1-4.29,2.641,4.664,4.664,0,0,1-3.5-1.478A5.1,5.1,0,0,1,1.512,6.508,5.163,5.163,0,0,1,2.918,2.862,4.591,4.591,0,0,1,6.4,1.366a4.936,4.936,0,0,1,2.793.773,3.894,3.894,0,0,1,1.446,1.768.445.445,0,0,0,.415.325.453.453,0,0,0,.141-.023l.558-.195L11.778,4a.438.438,0,0,0,.12-.084c.16-.163.077-.413.04-.527A4.74,4.74,0,0,0,10.08,1.029,6.394,6.394,0,0,0,6.413,0a6.144,6.144,0,0,0-4.57,1.9A6.4,6.4,0,0,0,0,6.508a6.4,6.4,0,0,0,1.8,4.655A6.252,6.252,0,0,0,6.448,13a5.817,5.817,0,0,0,5.474-3.375.415.415,0,0,0-.111-.6" transform="translate(136 16)" fill="#fff"/>
  <g id="Group_17" data-name="Group 17" transform="translate(149 16)">
    <path id="Clip_16-2" data-name="Clip 16" d="M0,0H9.455V12.6H0Z" transform="translate(0.415 0.109)" fill="none"/>
    <g id="Group_17-2" data-name="Group 17" clip-path="url(#clip-path)">
      <path id="Fill_15" data-name="Fill 15" d="M8.215,6.657A7.655,7.655,0,0,0,5.351,5.591l-.666-.137a5.767,5.767,0,0,1-2.113-.78,1.607,1.607,0,0,1-.754-1.389,1.607,1.607,0,0,1,.658-1.38,3.774,3.774,0,0,1,2.3-.579A3.023,3.023,0,0,1,7.937,3.353a.362.362,0,0,0,.542.183l.5-.213a.431.431,0,0,0,.247-.583A4.022,4.022,0,0,0,7.738.813,5.088,5.088,0,0,0,4.808,0,5.158,5.158,0,0,0,1.56.917,3.019,3.019,0,0,0,.371,3.4,2.782,2.782,0,0,0,1.487,5.717a7.625,7.625,0,0,0,2.8,1.1c.269.057.494.1.664.136a6.886,6.886,0,0,1,2.293.8,1.685,1.685,0,0,1,.769,1.49c0,1.365-1.029,2.028-3.148,2.028a4.265,4.265,0,0,1-2.19-.537A2.723,2.723,0,0,1,1.435,9.279a.377.377,0,0,0-.357-.258.452.452,0,0,0-.153.028l-.637.219a.38.38,0,0,0-.248.2A.511.511,0,0,0,.056,9.9a3.932,3.932,0,0,0,1.818,2,6.3,6.3,0,0,0,3.056.7c3,0,4.525-1.2,4.525-3.556A2.776,2.776,0,0,0,8.215,6.657" transform="translate(0.415 0.109)" fill="#fff"/>
    </g>
  </g>
  <path id="Fill_18" data-name="Fill 18" d="M9.595,0H.405A.386.386,0,0,0,0,.409V.957a.358.358,0,0,0,.388.36H4.222V11.57a.413.413,0,0,0,.442.43h.709a.37.37,0,0,0,.387-.4V1.317H9.577A.372.372,0,0,0,10,.957V.409A.385.385,0,0,0,9.595,0" transform="translate(33 17)" fill="#fff"/>
  <path id="Fill_20" data-name="Fill 20" d="M9.561,0H8.953A.424.424,0,0,0,8.53.481V4.823H1.47V.464A.408.408,0,0,0,1.065,0H.44A.424.424,0,0,0,0,.464V11.57A.4.4,0,0,0,.422,12h.626a.388.388,0,0,0,.422-.4V6.191H8.53V11.6a.388.388,0,0,0,.422.4h.591A.4.4,0,0,0,10,11.6V.481A.431.431,0,0,0,9.561,0" transform="translate(44 17)" fill="#fff"/>
  <path id="Fill_22" data-name="Fill 22" d="M8.532,10.682H1.569V6.549H8.4c.14,0,.376-.066.376-.509V5.708c0-.442-.288-.477-.376-.477H1.569V1.317H8.477a.425.425,0,0,0,.43-.475V.427A.407.407,0,0,0,8.477,0H.358A.362.362,0,0,0,0,.413V11.519A.428.428,0,0,0,.433,12h8.1A.427.427,0,0,0,9,11.557v-.416a.452.452,0,0,0-.108-.365.522.522,0,0,0-.361-.094" transform="translate(56 17)" fill="#fff"/>
  <path id="Fill_24" data-name="Fill 24" d="M9.552,12H8.841a.558.558,0,0,1-.451-.233L5.2,7.5H1.5v4.1a.367.367,0,0,1-.379.4H.378A.367.367,0,0,1,0,11.6V.4A.367.367,0,0,1,.378,0H4.99A4.3,4.3,0,0,1,8.079,1.14,3.584,3.584,0,0,1,9.219,3.826a3.338,3.338,0,0,1-.756,2.2,4.067,4.067,0,0,1-1.7,1.181l3.1,4.1a.588.588,0,0,1,.137.345C10,11.689,9.987,12,9.552,12ZM1.5,1.317V6.182H4.849a3.252,3.252,0,0,0,2.173-.654,2.1,2.1,0,0,0,.75-1.693,2.261,2.261,0,0,0-.8-1.822,2.994,2.994,0,0,0-2.032-.7Z" transform="translate(67 17)" fill="#fff"/>
  <path id="Fill_26" data-name="Fill 26" d="M9,4.5A4.5,4.5,0,1,0,4.5,9,4.5,4.5,0,0,0,9,4.5" transform="translate(10 10)" fill="#fff"/>
  <g id="Group_30" data-name="Group 30" transform="translate(34)">
    <path id="Clip_29-2" data-name="Clip 29" d="M0,0H12.089V12.357H0Z" transform="translate(0.175 0.324)" fill="none"/>
    <g id="Group_30-2" data-name="Group 30" clip-path="url(#clip-path-2)">
      <path id="Fill_28" data-name="Fill 28" d="M11.708,12.357h-.734a.443.443,0,0,1-.407-.272l-1.2-2.512H2.691l-1.163,2.44a.559.559,0,0,1-.511.344H.42a.4.4,0,0,1-.369-.173.413.413,0,0,1,.013-.419C2.744,6.217,4.687,2.236,5.684.254A.422.422,0,0,1,6.038,0,.389.389,0,0,1,6.4.267C8.859,5.22,10.754,9.1,12.031,11.8a.389.389,0,0,1,.009.392A.364.364,0,0,1,11.708,12.357ZM6.032,2.531l-.149.31C5.253,4.181,4.385,6,3.3,8.248H8.761L6.194,2.858l-.071-.143Z" transform="translate(0.175 0.324)" fill="#fff"/>
    </g>
  </g>
  <path id="Fill_31" data-name="Fill 31" d="M1.1,12H.368A.361.361,0,0,1,0,11.6V.4A.361.361,0,0,1,.368,0h4.5A4.355,4.355,0,0,1,7.781,1.027,3.453,3.453,0,0,1,9,3.775,3.414,3.414,0,0,1,7.761,6.542,4.939,4.939,0,0,1,4.525,7.55H1.465V11.6A.361.361,0,0,1,1.1,12ZM1.465,1.317V6.233h3.38a2.834,2.834,0,0,0,1.878-.625,2.248,2.248,0,0,0,.812-1.833,2.19,2.19,0,0,0-.787-1.781,2.884,2.884,0,0,0-1.938-.677Z" transform="translate(47)" fill="#fff"/>
  <path id="Fill_33" data-name="Fill 33" d="M1.1,12H.369A.362.362,0,0,1,0,11.6V.4A.362.362,0,0,1,.369,0h4.5A4.343,4.343,0,0,1,7.78,1.027,3.449,3.449,0,0,1,9,3.775,3.414,3.414,0,0,1,7.76,6.542,4.939,4.939,0,0,1,4.526,7.55H1.465V11.6A.361.361,0,0,1,1.1,12ZM1.465,1.317V6.233h3.38a2.825,2.825,0,0,0,1.876-.625,2.246,2.246,0,0,0,.813-1.833,2.19,2.19,0,0,0-.787-1.781,2.881,2.881,0,0,0-1.938-.677Z" transform="translate(58)" fill="#fff"/>
  <path id="Fill_35" data-name="Fill 35" d="M.39,12h7.2A.4.4,0,0,0,8,11.574v-.5a.388.388,0,0,0-.426-.392H1.546V.362A.342.342,0,0,0,1.194,0H.39A.368.368,0,0,0,0,.379V11.621A.368.368,0,0,0,.39,12" transform="translate(68)" fill="#fff"/>
  <path id="Fill_37" data-name="Fill 37" d="M.713,12C.885,12,1,11.842,1,11.6V.446C1,.117.858,0,.737,0H.3C.117,0,0,.175,0,.446V11.6c0,.238.115.4.287.4Z" transform="translate(77)" fill="#fff"/>
  <path id="Fill_39" data-name="Fill 39" d="M.431,12h8.1A.427.427,0,0,0,9,11.558v-.416a.444.444,0,0,0-.108-.365.513.513,0,0,0-.36-.094H1.567V6.549H8.4c.14,0,.376-.066.376-.51V5.707c0-.442-.289-.476-.376-.476H1.567V1.318H8.476A.425.425,0,0,0,8.907.842V.427A.407.407,0,0,0,8.476,0H.357A.362.362,0,0,0,0,.413V11.519A.428.428,0,0,0,.431,12" transform="translate(80)" fill="#fff"/>
  <path id="Fill_41" data-name="Fill 41" d="M5.1,12H.319C.286,12,0,11.989,0,11.6V.412C0,.02.265,0,.319,0H5.2A5.737,5.737,0,0,1,9.248,1.476,5.77,5.77,0,0,1,11,5.915a6.078,6.078,0,0,1-1.645,4.361A5.659,5.659,0,0,1,5.1,12ZM1.475,1.318v9.366h3.5A4.194,4.194,0,0,0,8.22,9.348,4.867,4.867,0,0,0,9.473,5.914,4.594,4.594,0,0,0,8.185,2.457,4.433,4.433,0,0,0,5.011,1.318Z" transform="translate(91)" fill="#fff"/>
  <path id="Fill_43" data-name="Fill 43" d="M7.8,0,0,7.8v5.306A7.9,7.9,0,0,0,7.89,21H13.2L21,13.2H7.8Z" transform="translate(0 9)" fill="#a3bcc3"/>
  <path id="Fill_45" data-name="Fill 45" d="M26.771,2.308A7.426,7.426,0,0,0,21.4,0H7.52L0,7.779H21.482V30L29,22.221V7.867a7.952,7.952,0,0,0-2.229-5.559" fill="#a3bcc3"/>
</svg>
