<svg xmlns="http://www.w3.org/2000/svg" width="23.121" height="23.121" viewBox="0 0 23.121 23.121">
  <path id="Facebook_Color" data-name="Facebook / Color" d="M12.35,23.121H1.276A1.276,1.276,0,0,1,0,21.845V1.276A1.276,1.276,0,0,1,1.276,0H21.845a1.276,1.276,0,0,1,1.276,1.276V21.845a1.276,1.276,0,0,1-1.276,1.276H15.953V14.168h3.005l.45-3.489H15.953V8.45c0-1.01.281-1.7,1.729-1.7h1.848V3.63a24.7,24.7,0,0,0-2.693-.138c-2.664,0-4.488,1.626-4.488,4.613v2.573H9.337v3.489H12.35v8.954Z" fill="rgba(255,255,255,0.8)"/>
</svg>
