<?xml version="1.0" encoding="utf-8"?>
<!-- Generator: Adobe Illustrator 24.3.0, SVG Export Plug-In . SVG Version: 6.00 Build 0)  -->
<svg version="1.1" id="Layer_1" xmlns="http://www.w3.org/2000/svg" xmlns:xlink="http://www.w3.org/1999/xlink" x="0px" y="0px"
	 viewBox="0 0 382 74" enable-background="new 0 0 382 74" xml:space="preserve">
<path fill="#00854F" d="M202.1,40.9c-0.3-0.6-0.7-0.7-0.9-0.7c-0.2,0-0.6,0.1-0.9,0.6c-2.4,4.7-7,14.3-13.8,28.3
	c-0.2,0.4-0.2,0.8,0,1c0.1,0.2,0.4,0.4,0.9,0.4h1.5c0.3,0,0.9-0.1,1.3-0.8l2.9-6h16.4l2.9,6.2c0.3,0.6,0.8,0.7,1,0.7h1.8
	c0.5,0,0.7-0.2,0.8-0.4c0.2-0.3,0.2-0.6,0-1C212.9,62.8,208.2,53.2,202.1,40.9z M194.5,60.6c2.7-5.6,4.8-10,6.4-13.3
	c0.1-0.3,0.3-0.6,0.4-0.8c0.1,0.2,0.2,0.5,0.4,0.8l6.3,13.3H194.5z"/>
<path fill="#00854F" d="M236.9,43.5c-1.9-1.7-4.3-2.5-7.1-2.5h-10.9c-0.4,0-0.9,0.3-0.9,1v27.8c0,0.7,0.4,1,0.9,1h1.8
	c0.4,0,0.9-0.3,0.9-1V59.7h7.4c3.2,0,5.9-0.8,7.9-2.5c2-1.7,3-4,3-6.8C239.9,47.5,238.9,45.2,236.9,43.5z M234.3,54.9
	c-1.2,1-2.7,1.5-4.6,1.5h-8.2V44.2h8.1c1.9,0,3.4,0.5,4.7,1.7c1.3,1.1,1.9,2.5,1.9,4.4C236.3,52.2,235.6,53.7,234.3,54.9z"/>
<path fill="#00854F" d="M262.6,67.4h-15.8V57.2h15.5c0.3,0,0.9-0.2,0.9-1.3v-0.8c0-1.1-0.6-1.2-0.9-1.2h-15.5v-9.7h15.7
	c0.5,0,1-0.3,1-1.2v-1c0-0.7-0.5-1-1-1h-18.4c-0.1,0-0.8,0-0.8,1v27.5c0,1.1,0.8,1.2,1,1.2h18.4c0.6,0,1.1-0.4,1.1-1.1v-1
	c0-0.4,0-0.7-0.2-0.9C263.2,67.5,263,67.4,262.6,67.4z"/>
<path fill="#00854F" d="M289.8,41h-1.9c-0.3,0-0.8,0.2-0.8,0.9v17.4c0,6-2.6,8.9-8.1,8.9s-8.1-2.9-8.1-8.9V41.9
	c0-0.5-0.4-0.9-0.9-0.9h-1.8c-0.5,0-0.9,0.4-0.9,0.9v17.3c0,3.8,1,6.8,3.1,9c2.1,2.1,5,3.2,8.5,3.2c3.6,0,6.4-1.1,8.5-3.2
	c2.1-2.1,3.1-5.1,3.1-8.9V41.9C290.7,41.3,290.3,41,289.8,41z"/>
<path fill="#00854F" d="M315.7,41h-21.2c-0.5,0-0.9,0.3-0.9,1v1.4c0,0.5,0.4,0.9,0.9,0.9h8.9v25.4c0,0.6,0.4,1.1,1,1.1h1.6
	c0.4,0,0.9-0.3,0.9-1V44.2h8.8c0.7,0,1-0.5,1-0.9V42C316.6,41.3,316.2,41,315.7,41z"/>
<path fill="#00854F" d="M322.1,41h-1.5c-0.6,0-1.1,0.4-1.1,1.1v27.6c0,0.6,0.4,1,1,1h1.5c0.6,0,1-0.4,1-1V42.1
	C323,41.3,322.5,41,322.1,41z"/>
<path fill="#00854F" d="M355,61.9l-1.1-0.6c-0.2-0.1-0.3-0.1-0.5-0.1c-0.3,0-0.7,0.1-1,0.7c-2.5,4.2-5.9,6.3-10.3,6.3
	c-3.4,0-6.2-1.2-8.4-3.5c-2.3-2.3-3.4-5.3-3.4-8.7c0-3.4,1.1-6.3,3.4-8.7c2.2-2.4,5.1-3.6,8.4-3.6c2.6,0,4.9,0.6,6.7,1.8
	c1.6,1.1,2.8,2.5,3.5,4.2c0.3,0.7,0.8,0.8,1,0.8c0.1,0,0.2,0,0.3-0.1l1.4-0.5l0.1,0c0.1-0.1,0.2-0.1,0.3-0.2c0.4-0.4,0.2-1,0.1-1.3
	c-0.8-2.3-2.3-4.2-4.5-5.6c-2.4-1.6-5.4-2.5-8.8-2.5c-4.4,0-8,1.5-11,4.5c-3,3-4.4,6.7-4.4,11c0,4.5,1.5,8.2,4.3,11.1
	c2.9,2.9,6.6,4.4,11.2,4.4c5.9,0,10.4-2.7,13.2-8C355.7,62.6,355.4,62.1,355,61.9z"/>
<path fill="#00854F" d="M377.9,56.8c-1.5-1.1-3.8-2-6.9-2.6l-1.6-0.3c-2.3-0.5-4-1.1-5.1-1.9c-1.2-0.9-1.8-2-1.8-3.4
	c0-1.5,0.5-2.6,1.6-3.4c1.2-1,3.1-1.4,5.5-1.4c3.9,0,6.4,1.6,7.6,5c0.2,0.5,0.8,0.8,1.3,0.5l1.2-0.5c0.6-0.2,0.8-0.8,0.6-1.4
	c-0.7-2-1.9-3.5-3.6-4.7c-1.9-1.3-4.2-2-7-2c-3.3,0-5.9,0.8-7.8,2.3c-1.9,1.5-2.9,3.6-2.9,6.1c0,2.4,0.9,4.3,2.7,5.7
	c1.5,1.1,3.7,2,6.7,2.7c0.6,0.1,1.2,0.3,1.6,0.3c2.6,0.6,4.5,1.2,5.5,2c1.2,0.9,1.9,2.1,1.9,3.7c0,3.4-2.5,5-7.6,5
	c-2,0-3.8-0.4-5.3-1.3c-1.5-0.9-2.4-2-3-3.6c-0.1-0.4-0.5-0.6-0.9-0.6c-0.1,0-0.2,0-0.4,0.1l-1.5,0.5c-0.4,0.1-0.5,0.3-0.6,0.5
	c-0.1,0.3-0.1,0.6,0,1.1c0.8,2.1,2.3,3.8,4.4,4.9c2,1.1,4.5,1.7,7.3,1.7c7.2,0,10.9-2.9,10.9-8.8C380.8,60.2,379.8,58.2,377.9,56.8z
	"/>
<path fill="#00854F" d="M103.8,41H82.5c-0.5,0-0.9,0.3-0.9,1v1.4c0,0.5,0.4,0.9,0.9,0.9h8.9v25.4c0,0.6,0.4,1.1,1,1.1H94
	c0.4,0,0.9-0.3,0.9-1V44.2h8.8c0.7,0,1-0.5,1-0.9V42C104.7,41.3,104.2,41,103.8,41z"/>
<path fill="#00854F" d="M130.4,41h-1.5c-0.5,0-1,0.3-1,1.2v10.8h-17.1V42.1c0-0.8-0.5-1.2-1-1.2h-1.5c-0.7,0-1.1,0.5-1.1,1.2v27.5
	c0,0.6,0.4,1.1,1,1.1h1.5c0.6,0,1-0.4,1-1V56.3h17.1v13.4c0,0.6,0.4,1,1,1h1.4c0.8,0,1.1-0.5,1.1-1V42.2
	C131.4,41.3,130.9,41,130.4,41z"/>
<path fill="#00854F" d="M155.3,67.4h-15.8V57.2H155c0.3,0,0.9-0.2,0.9-1.3v-0.8c0-1.1-0.6-1.2-0.9-1.2h-15.5v-9.7h15.7
	c0.4,0,1-0.3,1-1.2v-1c0-0.7-0.5-1-1-1h-18.4c-0.1,0-0.8,0-0.8,1v27.5c0,0.9,0.5,1.2,1,1.2h18.4c0.6,0,1.1-0.4,1.1-1.1v-1
	c0-0.4,0-0.7-0.2-0.9C155.9,67.5,155.6,67.4,155.3,67.4z"/>
<path fill="#00854F" d="M176.8,58.8c1.7-0.7,3-1.6,4-2.9c1.2-1.5,1.8-3.3,1.8-5.4c0-2.6-0.9-4.9-2.7-6.7c-1.9-1.9-4.3-2.8-7.3-2.8
	h-10.9c-0.4,0-0.9,0.3-0.9,1v27.7c0,0.7,0.4,1,0.9,1h1.8c0.4,0,0.9-0.3,0.9-1V59.5h8.8l7.6,10.6c0.4,0.5,0.8,0.6,1.1,0.6h1.7
	c1,0,1.1-0.8,1.1-0.8c0-0.3-0.1-0.6-0.3-0.9L176.8,58.8z M172.3,56.3h-7.9v-12h8.1c1.9,0,3.5,0.6,4.8,1.7c1.3,1.1,1.9,2.6,1.9,4.5
	c0,1.8-0.6,3.1-1.8,4.2C176.3,55.7,174.5,56.3,172.3,56.3z"/>
<path fill="#00854F" d="M46.8,36.2c0-5.7-4.6-10.4-10.3-10.4c-5.7,0-10.4,4.6-10.4,10.4c0,5.7,4.6,10.4,10.4,10.4
	S46.8,41.9,46.8,36.2z"/>
<path fill="#00854F" d="M82.6,31.3h1.5c0.3,0,0.9-0.1,1.3-0.9l2.9-6h16.4l2.9,6.2c0.3,0.6,0.8,0.7,1,0.7h1.8c0.5,0,0.7-0.2,0.8-0.4
	c0.2-0.3,0.2-0.6,0-1c-3.1-6.6-7.8-16.1-13.9-28.4c-0.3-0.6-0.7-0.7-0.9-0.7c-0.2,0-0.6,0.1-0.9,0.6c-2.4,4.7-7,14.3-13.8,28.3
	c-0.2,0.4-0.2,0.8,0,1C81.8,31.1,82.1,31.3,82.6,31.3z M96.1,7.9c0.2-0.3,0.3-0.6,0.4-0.8c0.1,0.2,0.2,0.5,0.4,0.8l6.3,13.3H89.7
	C92.4,15.7,94.5,11.2,96.1,7.9z"/>
<path fill="#00854F" d="M132.1,4.2c-1.9-1.7-4.3-2.5-7.1-2.5h-10.9c-0.4,0-0.9,0.3-0.9,1v27.8c0,0.7,0.4,1,0.9,1h1.8
	c0.4,0,0.9-0.3,0.9-1v-10h7.4c3.2,0,5.9-0.8,7.8-2.5c2-1.7,3-4,3-6.9C135.1,8.2,134.1,5.9,132.1,4.2z M129.5,15.5
	c-1.2,1-2.7,1.5-4.6,1.5h-8.2V4.9h8.1c1.8,0,3.4,0.6,4.7,1.7c1.3,1.1,1.9,2.5,1.9,4.4C131.5,12.9,130.9,14.4,129.5,15.5z"/>
<path fill="#00854F" d="M157.4,4.2c-1.9-1.7-4.3-2.5-7.1-2.5h-10.9c-0.4,0-0.9,0.3-0.9,1v27.8c0,0.7,0.4,1,0.9,1h1.8
	c0.4,0,0.9-0.3,0.9-1v-10h7.4c3.2,0,5.9-0.8,7.9-2.5c2-1.7,3-4,3-6.9C160.3,8.2,159.3,5.9,157.4,4.2z M154.8,15.5
	c-1.2,1-2.7,1.5-4.6,1.5H142V4.9h8.1c1.9,0,3.4,0.6,4.7,1.7c1.3,1.1,1.9,2.5,1.9,4.4C156.8,12.9,156.1,14.4,154.8,15.5z"/>
<path fill="#00854F" d="M164.6,31.3h16.6c0.5,0,0.9-0.3,0.9-1v-1.2c0-0.6-0.4-1-1-1h-13.9V2.5c0-0.6-0.4-0.9-0.8-0.9h-1.9
	c-0.5,0-0.9,0.4-0.9,0.9v27.8C163.7,31,164.1,31.3,164.6,31.3z"/>
<path fill="#00854F" d="M188.2,31.3c0.6,0,1-0.4,1-1V2.7c0-0.8-0.5-1.1-0.9-1.1h-1.6c-0.6,0-1.1,0.4-1.1,1.1v27.6c0,0.6,0.4,1,1,1
	H188.2z"/>
<path fill="#00854F" d="M194.9,31.3h18.4c0.6,0,1.1-0.4,1.1-1.1v-1c0-0.4,0-0.7-0.2-0.9c-0.2-0.2-0.5-0.2-0.8-0.2h-15.8V17.9H213
	c0.3,0,0.9-0.2,0.9-1.3v-0.8c0-1.1-0.6-1.2-0.9-1.2h-15.5V4.9h15.7c0.4,0,1-0.3,1-1.2v-1c0-0.7-0.5-1-1-1h-18.4c-0.1,0-0.8,0-0.8,1
	v27.5C193.9,31,194.5,31.3,194.9,31.3z"/>
<path fill="#00854F" d="M240.7,5.3c-2.5-2.4-5.8-3.7-9.8-3.7h-11.8c-0.1,0-0.8,0-0.8,1v27.7c0,1,0.7,1,0.8,1h11.5
	c4.2,0,7.6-1.4,10.3-4.3c2.6-2.8,4-6.5,4-10.8C244.9,11.6,243.5,7.9,240.7,5.3z M238.2,24.8c-2,2.2-4.6,3.3-7.8,3.3h-8.4V4.9h8.5
	c3.2,0,5.7,0.9,7.6,2.8c2.1,2,3.1,4.9,3.1,8.6C241.2,19.7,240.2,22.6,238.2,24.8z"/>
<path fill="#A3BCC3" d="M19.4,22.2L1.2,40.5v12.4c0,4.9,1.9,9.6,5.4,13.1c3.5,3.5,8.1,5.4,13.1,5.4h12.4l18.3-18.3H19.4V22.2z"/>
<path fill="#A3BCC3" d="M66.2,6.3c-3.5-3.5-8.1-5.4-13.1-5.4H19.4L1.2,19.2h52.2v52.2l18.3-18.3V19.4C71.6,14.5,69.7,9.8,66.2,6.3z"
	/>
</svg>
