<svg xmlns="http://www.w3.org/2000/svg" width="12.159" height="12.159" viewBox="0 0 12.159 12.159">
  <g id="Combined_Shape" data-name="Combined Shape" transform="translate(-1.8 -3.858)" fill="#018650" stroke-linejoin="round" stroke-miterlimit="10">
    <path d="M 10.21049976348877 15.91749954223633 L 5.524199962615967 15.91749954223633 C 3.525699853897095 15.91749954223633 1.899799942970276 14.28998947143555 1.899799942970276 12.28949928283691 L 1.899799942970276 7.598699569702148 C 1.899799942970276 5.591269493103027 3.525699853897095 3.958099365234375 5.524199962615967 3.958099365234375 L 6.587100028991699 3.958099365234375 L 6.715169906616211 3.958099365234375 L 6.684119701385498 4.082349300384521 C 6.635139942169189 4.278289318084717 6.61329984664917 4.454009532928467 6.61329984664917 4.652099609375 C 6.61329984664917 4.842079639434814 6.645420074462891 5.013879299163818 6.67943000793457 5.195779323577881 L 6.685400009155273 5.227729320526123 L 6.707520008087158 5.346099376678467 L 6.587100028991699 5.346099376678467 L 5.524199962615967 5.346099376678467 C 4.283599853515625 5.346099376678467 3.27429986000061 6.356609344482422 3.27429986000061 7.598699569702148 L 3.27429986000061 12.28949928283691 C 3.27429986000061 13.53108978271484 4.283599853515625 14.54119968414307 5.524199962615967 14.54119968414307 L 10.22219944000244 14.54119968414307 C 11.46280002593994 14.54119968414307 12.47210025787354 13.53108978271484 12.47210025787354 12.28949928283691 L 12.47210025787354 11.21309947967529 L 12.47210025787354 11.08296966552734 L 12.59784030914307 11.11646938323975 C 12.7519702911377 11.15752983093262 12.93851947784424 11.19949913024902 13.15349960327148 11.19949913024902 C 13.3546199798584 11.19949913024902 13.54901027679443 11.16290950775146 13.71263027191162 11.12710952758789 L 13.83399963378906 11.10055923461914 L 13.83399963378906 11.22479915618896 L 13.83399963378906 12.28949928283691 C 13.83399963378906 14.28998947143555 12.20849990844727 15.91749954223633 10.21049976348877 15.91749954223633 Z M 6.142499923706055 12.34359931945801 C 5.955609798431396 12.34359931945801 5.780910015106201 12.27182960510254 5.650589942932129 12.14150905609131 C 5.52131986618042 12.01921939849854 5.447669982910156 11.85120964050293 5.445189952850342 11.67035961151123 C 5.442609786987305 11.48349952697754 5.515560150146484 11.30621910095215 5.650589942932129 11.1711893081665 L 11.48969554901123 5.345199584960938 L 8.726400375366211 5.345199584960938 C 8.337749481201172 5.345199584960938 8.033299446105957 5.040359497070312 8.033299446105957 4.651199340820312 C 8.033299446105957 4.269019603729248 8.344220161437988 3.958099365234375 8.726400375366211 3.958099365234375 L 13.15349960327148 3.958099365234375 C 13.540940284729 3.958099365234375 13.84430027008057 4.254449367523193 13.85912990570068 4.647429466247559 L 13.85919952392578 9.065699577331543 C 13.85919952392578 9.454859733581543 13.55435943603516 9.759699821472168 13.16520023345947 9.759699821472168 C 12.78302001953125 9.759699821472168 12.47210025787354 9.448369026184082 12.47210025787354 9.065699577331543 L 12.47210025787354 6.302919387817383 L 6.633510112762451 12.14150905609131 L 6.631619930267334 12.14339923858643 L 6.629630088806152 12.14518928527832 C 6.487229824066162 12.2731294631958 6.314229965209961 12.34359931945801 6.142499923706055 12.34359931945801 Z" stroke="none"/>
    <path d="M 10.21049976348877 15.8174991607666 C 12.15336036682129 15.8174991607666 13.73400020599365 14.23484992980957 13.73400020599365 12.28949928283691 L 13.73400020599365 11.22479915618896 C 13.56515026092529 11.26173973083496 13.3641300201416 11.29949951171875 13.15349960327148 11.29949951171875 C 12.92068004608154 11.29949951171875 12.72116947174072 11.25280952453613 12.57209968566895 11.21309947967529 L 12.57209968566895 12.28949928283691 C 12.57209968566895 13.58622932434082 11.51793956756592 14.64119911193848 10.22219944000244 14.64119911193848 L 5.524199962615967 14.64119911193848 C 4.22845983505249 14.64119911193848 3.174299955368042 13.58622932434082 3.174299955368042 12.28949928283691 L 3.174299955368042 7.598699569702148 C 3.174299955368042 6.301469326019287 4.22845983505249 5.246099472045898 5.524199962615967 5.246099472045898 L 6.587100028991699 5.246099472045898 L 6.581150054931641 5.214259624481201 C 6.546259880065918 5.027639389038086 6.513299942016602 4.85137939453125 6.513299942016602 4.652099609375 C 6.513299942016602 4.443909645080566 6.536359786987305 4.261099338531494 6.587100028991699 4.058099269866943 L 5.524199962615967 4.058099269866943 C 3.580839872360229 4.058099269866943 1.999799966812134 5.646409511566162 1.999799966812134 7.598699569702148 L 1.999799966812134 12.28949928283691 C 1.999799966812134 14.23484992980957 3.580839872360229 15.8174991607666 5.524199962615967 15.8174991607666 L 10.21049976348877 15.8174991607666 M 6.142499923706055 12.2435998916626 C 6.289519786834717 12.2435998916626 6.438769817352295 12.1822395324707 6.56279993057251 12.07079982757568 L 12.57209968566895 6.06149959564209 L 12.57209968566895 9.065699577331543 C 12.57209968566895 9.393229484558105 12.83815956115723 9.659699440002441 13.16520023345947 9.659699440002441 C 13.4982795715332 9.659699440002441 13.75920009613037 9.39877986907959 13.75920009613037 9.065699577331543 L 13.75920009613037 4.651199340820312 C 13.74643993377686 4.313079357147217 13.48604011535645 4.058099269866943 13.15349960327148 4.058099269866943 L 8.726400375366211 4.058099269866943 C 8.399359703063965 4.058099269866943 8.133299827575684 4.324159622192383 8.133299827575684 4.651199340820312 C 8.133299827575684 4.984279632568359 8.393819808959961 5.245199680328369 8.726400375366211 5.245199680328369 L 11.73149967193604 5.245199680328369 L 5.72130012512207 11.24189949035645 C 5.605519771575928 11.35767936706543 5.542979717254639 11.50935935974121 5.545179843902588 11.66898918151855 C 5.547289848327637 11.82261943817139 5.60984992980957 11.96531963348389 5.72130012512207 12.07079982757568 C 5.832729816436768 12.18222904205322 5.982309818267822 12.2435998916626 6.142499923706055 12.2435998916626 M 10.21049976348877 16.01749992370605 L 5.524199962615967 16.01749992370605 C 3.47055983543396 16.01749992370605 1.799799919128418 14.34512901306152 1.799799919128418 12.28949928283691 L 1.799799919128418 7.598699569702148 C 1.799799919128418 5.536129474639893 3.47055983543396 3.858099460601807 5.524199962615967 3.858099460601807 L 6.587100028991699 3.858099460601807 C 6.648689746856689 3.858099460601807 6.706840038299561 3.88646936416626 6.744740009307861 3.935009479522705 C 6.782639980316162 3.983549356460571 6.796060085296631 4.046849250793457 6.781129837036133 4.1065993309021 C 6.734220027923584 4.2942795753479 6.713299751281738 4.462519645690918 6.713299751281738 4.652099609375 C 6.713299751281738 4.832809448242188 6.743159770965576 4.992499351501465 6.777719974517822 5.177399635314941 L 6.783699989318848 5.209359645843506 C 6.794620037078857 5.267829418182373 6.77895975112915 5.328119277954102 6.740960121154785 5.3738694190979 C 6.702970027923584 5.419629573822021 6.646579742431641 5.446099281311035 6.587100028991699 5.446099281311035 L 5.524199962615967 5.446099281311035 C 4.33873987197876 5.446099281311035 3.374300003051758 6.411749362945557 3.374300003051758 7.598699569702148 L 3.374300003051758 12.28949928283691 C 3.374300003051758 13.47594928741455 4.33873987197876 14.44119930267334 5.524199962615967 14.44119930267334 L 10.22219944000244 14.44119930267334 C 11.40765953063965 14.44119930267334 12.37209987640381 13.47594928741455 12.37209987640381 12.28949928283691 L 12.37209987640381 11.21309947967529 C 12.37209987640381 11.15096950531006 12.40096950531006 11.09236907958984 12.45022964477539 11.05451965332031 C 12.48555755615234 11.02736759185791 12.52850151062012 11.01309871673584 12.57210731506348 11.01309871673584 C 12.58930492401123 11.01309871673584 12.60660076141357 11.0153169631958 12.62357997894287 11.0198392868042 C 12.77145957946777 11.05922985076904 12.95005035400391 11.09949970245361 13.15349960327148 11.09949970245361 C 13.34509944915771 11.09949970245361 13.53285980224609 11.0640697479248 13.69126033782959 11.02941989898682 C 13.70543003082275 11.02631950378418 13.71976184844971 11.02479648590088 13.73400020599365 11.02479648590088 C 13.77919673919678 11.02479648590088 13.82353019714355 11.04012584686279 13.85939979553223 11.06899929046631 C 13.906569480896 11.10695934295654 13.93400001525879 11.16424942016602 13.93400001525879 11.22479915618896 L 13.93400001525879 12.28949928283691 C 13.93400001525879 14.34512901306152 12.26363945007324 16.01749992370605 10.21049976348877 16.01749992370605 Z M 6.142499923706055 12.44359970092773 C 5.929906845092773 12.44359970092773 5.730996608734131 12.36221313476562 5.582018375396729 12.21434879302979 C 5.432121753692627 12.07158851623535 5.348048686981201 11.87899398803711 5.345200061798096 11.67173957824707 C 5.342249870300293 11.45763969421387 5.425590038299561 11.25475978851318 5.579879760742188 11.10047912597656 L 11.24789142608643 5.445199489593506 L 8.726400375366211 5.445199489593506 C 8.281669616699219 5.445199489593506 7.933300018310547 5.096429347991943 7.933300018310547 4.651199340820312 C 7.933300018310547 4.213879585266113 8.289079666137695 3.858099460601807 8.726400375366211 3.858099460601807 L 13.15349960327148 3.858099460601807 C 13.59583950042725 3.858099460601807 13.94215965270996 4.19581937789917 13.959059715271 4.643659591674805 C 13.95915031433105 4.646169662475586 13.95919990539551 4.648689270019531 13.95919990539551 4.651199340820312 L 13.95919990539551 9.065699577331543 C 13.95919990539551 9.510929107666016 13.61042976379395 9.859699249267578 13.16520023345947 9.859699249267578 C 12.72787952423096 9.859699249267578 12.37209987640381 9.503509521484375 12.37209987640381 9.065699577331543 L 12.37209987640381 6.544339656829834 L 6.704219818115234 12.21221923828125 C 6.701699733734131 12.21473979949951 6.699120044708252 12.21718978881836 6.696469783782959 12.21956920623779 C 6.535679817199707 12.36403942108154 6.338940143585205 12.44359970092773 6.142499923706055 12.44359970092773 Z" stroke="none" fill="#018650"/>
  </g>
</svg>
