<svg xmlns="http://www.w3.org/2000/svg" width="40.085" height="40.085" viewBox="0 0 40.085 40.085">
  <g id="Search_button" data-name="Search button" transform="translate(-12.211 -12.655)">
    <g id="Search" transform="translate(13.092 29.122) rotate(-45)" fill="none" stroke-miterlimit="10">
      <path d="M9.531,32.778V22.57a11.644,11.644,0,1,1,2.911.009v10.2Z" stroke="none"/>
      <path d="M 10.99439430236816 19.73281097412109 L 12.07943248748779 19.60085868835449 C 16.40374946594238 19.07497787475586 19.66470336914062 15.38660049438477 19.66470336914062 11.02140045166016 C 19.66470336914062 6.254976749420166 15.78732681274414 2.377200365066528 11.02139759063721 2.377200365066528 C 6.254973888397217 2.377200365066528 2.377197265625 6.254976749420166 2.377197265625 11.02140045166016 C 2.377197265625 15.35983562469482 5.61617374420166 19.04541206359863 9.911338806152344 19.59438896179199 L 10.99439430236816 19.73281097412109 M 12.44159698486328 32.77799987792969 L 9.530997276306152 32.77799987792969 L 9.530997276306152 22.57017707824707 C 3.804503202438354 21.83827018737793 -0.6228026151657104 16.9467658996582 -0.6228026151657104 11.02140045166016 C -0.6228026151657104 4.590906143188477 4.590903282165527 -0.6227995157241821 11.02139759063721 -0.6227995157241821 C 17.45190238952637 -0.6227995157241821 22.66470336914062 4.590906143188477 22.66470336914062 11.02140045166016 C 22.66470336914062 16.97110557556152 18.20216178894043 21.87836456298828 12.44159698486328 22.57891845703125 L 12.44159698486328 32.77799987792969 Z" stroke="none" fill="#018650"/>
    </g>
  </g>
</svg>
