<svg id="Button_search" data-name="Button search" xmlns="http://www.w3.org/2000/svg" width="48" height="48" viewBox="0 0 48 48">
  <circle id="Ellipse_89" data-name="Ellipse 89" cx="24" cy="24" r="24" fill="#018650"/>
  <g id="Search" transform="translate(10.211 22.025) rotate(-45)" fill="none" stroke-miterlimit="10">
    <path d="M7.707,23.707V16.645a8,8,0,1,1,2,0v7.062Z" stroke="none"/>
    <path d="M 8.70716667175293 14.75401782989502 L 9.45991039276123 14.66014957427979 C 12.45107078552246 14.28714942932129 14.70670032501221 11.72805976867676 14.70670032501221 8.707499504089355 C 14.70670032501221 5.399029731750488 12.01547050476074 2.707399606704712 8.707500457763672 2.707399606704712 C 5.399030208587646 2.707399606704712 2.707400321960449 5.399029731750488 2.707400321960449 8.707499504089355 C 2.707400321960449 11.72777938842773 4.963090419769287 14.28683948516846 7.95434045791626 14.66007995605469 L 8.70716667175293 14.75401782989502 M 9.707400321960449 23.70689964294434 L 7.706700325012207 23.70689964294434 L 7.706700325012207 16.64468955993652 C 3.760340213775635 16.15226936340332 0.7074003219604492 12.78663921356201 0.7074003219604492 8.707499504089355 C 0.7074003219604492 4.288499355316162 4.288500308990479 0.7073994874954224 8.707500457763672 0.7073994874954224 C 13.12559986114502 0.7073994874954224 16.70669937133789 4.288499355316162 16.70669937133789 8.707499504089355 C 16.70669937133789 12.78690910339355 13.65342998504639 16.15270042419434 9.707400321960449 16.64477920532227 L 9.707400321960449 23.70689964294434 Z" stroke="none" fill="#fff"/>
  </g>
</svg>
